# xmcd CD database file
#
# Track frame offsets:
#	150
#	38232
#	69080
#	77874
#	96745
#	133685
#
# Disc length: 2053 seconds
#
# Revision: 0
# Processed by: cddbd v1.5.1PL0 Copyright (c) Steve Scherf et al.
# Submitted via: CDex 1.50beta9
#
DISCID=4e080306
DTITLE=Danne Johansson Kvartett - Jazz i Norra Hamn
DYEAR=2005
DGENRE=Jazz
TTITLE0=Someday My Prince Will Come
TTITLE1=500 Miles High
TTITLE2=Att Angöra En Brygga
TTITLE3=Love Vibrations
TTITLE4=I Thought About You
TTITLE5=All The Things You Are
EXTD=YEAR: 2005
EXTT0=
EXTT1=
EXTT2=
EXTT3=
EXTT4=
EXTT5=
PLAYORDER=
